<svg width="18" height="19" viewBox="0 0 18 19" fill="none" xmlns="http://www.w3.org/2000/svg">
<path d="M9.00049 17.5625C4.55299 17.5625 0.937988 13.9475 0.937988 9.5C0.937988 5.0525 4.55299 1.4375 9.00049 1.4375C13.448 1.4375 17.063 5.0525 17.063 9.5C17.063 13.9475 13.448 17.5625 9.00049 17.5625ZM9.00049 2.5625C5.17549 2.5625 2.06299 5.675 2.06299 9.5C2.06299 13.325 5.17549 16.4375 9.00049 16.4375C12.8255 16.4375 15.938 13.325 15.938 9.5C15.938 5.675 12.8255 2.5625 9.00049 2.5625Z" fill="#629CFF"/>
<path d="M6.75066 16.8125H6.00066C5.69316 16.8125 5.43816 16.5575 5.43816 16.25C5.43816 15.9425 5.67816 15.695 5.98566 15.6875C4.80816 11.6675 4.80816 7.3325 5.98566 3.3125C5.67816 3.305 5.43816 3.0575 5.43816 2.75C5.43816 2.4425 5.69316 2.1875 6.00066 2.1875H6.75066C6.93066 2.1875 7.10316 2.2775 7.20816 2.42C7.31316 2.57 7.34316 2.7575 7.28316 2.93C5.87316 7.1675 5.87316 11.8325 7.28316 16.0775C7.34316 16.25 7.31316 16.4375 7.20816 16.5875C7.10316 16.7225 6.93066 16.8125 6.75066 16.8125Z" fill="#629CFF"/>
<path d="M11.2503 16.8125C11.1903 16.8125 11.1303 16.805 11.0703 16.7825C10.7778 16.685 10.6128 16.3625 10.7178 16.07C12.1278 11.8325 12.1278 7.16751 10.7178 2.92251C10.6203 2.63001 10.7778 2.30751 11.0703 2.21001C11.3703 2.11251 11.6853 2.27001 11.7828 2.56251C13.2753 7.03251 13.2753 11.9525 11.7828 16.415C11.7078 16.6625 11.4828 16.8125 11.2503 16.8125Z" fill="#629CFF"/>
<path d="M9.00049 13.4C6.90799 13.4 4.82299 13.1075 2.81299 12.515C2.80549 12.815 2.55799 13.0625 2.25049 13.0625C1.94299 13.0625 1.68799 12.8075 1.68799 12.5V11.75C1.68799 11.57 1.77799 11.3975 1.92049 11.2925C2.07049 11.1875 2.25799 11.1575 2.43049 11.2175C6.66799 12.6275 11.3405 12.6275 15.578 11.2175C15.7505 11.1575 15.938 11.1875 16.088 11.2925C16.238 11.3975 16.3205 11.57 16.3205 11.75V12.5C16.3205 12.8075 16.0655 13.0625 15.758 13.0625C15.4505 13.0625 15.203 12.8225 15.1955 12.515C13.178 13.1075 11.093 13.4 9.00049 13.4Z" fill="#629CFF"/>
<path d="M15.7503 7.81252C15.6903 7.81252 15.6303 7.80502 15.5703 7.78252C11.3328 6.37252 6.66033 6.37252 2.42283 7.78252C2.12283 7.88002 1.80783 7.72252 1.71033 7.43002C1.62033 7.13002 1.77783 6.81502 2.07033 6.71752C6.54033 5.22502 11.4603 5.22502 15.9228 6.71752C16.2153 6.81502 16.3803 7.13752 16.2753 7.43002C16.2078 7.66252 15.9828 7.81252 15.7503 7.81252Z" fill="#629CFF"/>
</svg>
